<svg t="1602489156066" class="icon" viewBox="0 0 1024 1024" version="1.1" xmlns="http://www.w3.org/2000/svg" p-id="3539" width="200" height="200"><path d="M521.142857 969.142857q0-9.142857-9.142857-9.142857-33.714286 0-58-24.285714t-24.285714-58q0-9.142857-9.142857-9.142857t-9.142857 9.142857q0 41.714286 29.428571 71.142857t71.142857 29.428571q9.142857 0 9.142857-9.142857zm466.285714-164.571429q0 29.714286-21.714286 51.428571t-51.428571 21.714286l-256 0q0 60.571429-42.857143 103.428571t-103.428571 42.857143-103.428571-42.857143-42.857143-103.428571l-256 0q-29.714286 0-51.428571-21.714286t-21.714286-51.428571q28.571429-24 52-50.285714t48.571429-68.285714 42.571429-90.571429 28.571429-117.714286 11.142857-148.571429q0-86.857143 66.857143-161.428571t175.428571-90.571429q-4.571429-10.857143-4.571429-22.285714 0-22.857143 16-38.857143t38.857143-16 38.857143 16 16 38.857143q0 11.428571-4.571429 22.285714 108.571429 16 175.428571 90.571429t66.857143 161.428571q0 79.428571 11.142857 148.571429t28.571429 117.714286 42.571429 90.571429 48.571429 68.285714 52 50.285714z" p-id="3540"></path></svg>