<svg t="1602492847971" class="icon" viewBox="0 0 1024 1024" version="1.1" xmlns="http://www.w3.org/2000/svg" p-id="10681" width="200" height="200"><path d="M901.811 266.564H753.42a28.877 28.877 0 0 1-27.049-18.769l-25.541-68.366c-9.149-24.487-35.723-42.801-59.838-42.801H388.868c-24.116 0-50.69 18.315-59.839 42.801l-25.541 68.366a28.877 28.877 0 0 1-27.049 18.769h-154.25c-31.763 0-57.75 25.988-57.75 57.75v505.31c0 31.762 25.987 57.75 57.75 57.75h779.622c31.763 0 57.75-25.988 57.75-57.75v-505.31c0-31.762-25.988-57.75-57.75-57.75zM512 771.874c-111.453 0-202.124-90.671-202.124-202.124S400.547 367.626 512 367.626s202.124 90.671 202.124 202.124S623.453 771.874 512 771.874z" p-id="10682" fill="#ffffff"></path><path d="M512 425.375c-79.61 0-144.374 64.771-144.374 144.374S432.39 714.124 512 714.124s144.374-64.771 144.374-144.374S591.61 425.375 512 425.375z" p-id="10683" fill="#ffffff"></path><path d="M844.061 382.063m-43.312 0a43.312 43.312 0 1 0 86.624 0 43.312 43.312 0 1 0-86.624 0Z" p-id="10684" fill="#ffffff"></path></svg>