<svg t="1602465969250" class="icon" viewBox="0 0 1024 1024" version="1.1" xmlns="http://www.w3.org/2000/svg" p-id="5243" width="200" height="200"><path d="M780.374 840.013 273.445 840.013c-115.084 0-208.735-93.651-208.735-208.735 0-81.071 47.059-154.688 120.209-188.7-0.466-6.989-0.932-13.512-0.932-20.035 0-131.857 106.697-238.555 238.555-238.555 96.913 0 184.041 58.707 220.85 148.165 21.433-18.637 48.922-28.888 77.344-28.888 65.695 0 119.277 53.582 119.277 119.277 0 22.831-6.523 45.195-19.104 64.298 81.072 19.104 138.381 91.322 138.381 174.257C959.29 759.873 879.15 840.013 780.374 840.013zM656.903 516.193 492.897 352.188c-2.796-2.796-6.523-4.193-10.717-4.193-3.728 0-7.921 1.397-10.716 4.193l-163.541 163.54c-2.795 3.262-4.659 6.989-4.659 11.183 0 8.387 6.523 14.909 14.91 14.909l104.367 0 0 164.006c0 7.921 6.989 14.91 14.91 14.91l89.457 0c7.921 0 14.91-6.989 14.91-14.91L541.818 541.819l104.367 0c8.387 0 14.91-6.988 14.91-14.909C661.097 523.183 659.699 518.989 656.903 516.193z" p-id="5244"></path></svg>