<svg t="1602492229565" class="icon" viewBox="0 0 1024 1024" version="1.1" xmlns="http://www.w3.org/2000/svg" p-id="7858" width="200" height="200"><path d="M595.428571 401.714286q0-50.285714-34.285714-69.142857-18.857143-10.285714-66.857143-10.285715H424v160.571429h92.571429q37.714286 0 58.285714-21.142857t20.571428-60z m29.714286 162.857143l117.142857 213.142857q4.571429 9.714286-0.571428 17.714285-4.571429 9.142857-15.428572 9.142858h-86.857143q-11.428571 0-16-9.714286l-110.857142-208.571429H424v200q0 8-5.142857 13.142857t-13.142857 5.142858H329.142857q-8 0-13.142857-5.142858t-5.142857-13.142857V237.714286q0-8 5.142857-13.142857t13.142857-5.142858h168q73.142857 0 108.571429 13.714286 48.571429 17.714286 76.571428 62.285714t28 102.857143q0 52.571429-24.285714 94.571429T620 555.428571q3.428571 5.714286 5.142857 9.142858zM512 91.428571q-85.714286 0-163.428571 33.428572t-134 89.714286-89.714286 134T91.428571 512t33.428572 163.428571 89.714286 134 134 89.714286 163.428571 33.428572 163.428571-33.428572 134-89.714286 89.714286-134 33.428572-163.428571-33.428572-163.428571-89.714286-134-134-89.714286T512 91.428571z m512 420.571429q0 104-40.571429 198.857143t-109.142857 163.428571-163.428571 109.142857-198.857143 40.571429-198.857143-40.571429-163.428571-109.142857-109.142857-163.428571T0 512t40.571429-198.857143 109.142857-163.428571T313.142857 40.571429 512 0t198.857143 40.571429 163.428571 109.142857 109.142857 163.428571 40.571429 198.857143z" p-id="7859" fill="#ffffff"></path></svg>