<svg t="1602489052536" class="icon" viewBox="0 0 1024 1024" version="1.1" xmlns="http://www.w3.org/2000/svg" p-id="2814" width="200" height="200"><path d="M908.6432 802.848q0 68.576-41.728 108.288t-110.848 39.712l-499.424 0q-69.152 0-110.848-39.712t-41.728-108.288q0-30.272 2.016-59.136t8-62.272 15.136-62.016 24.576-55.712 35.424-46.272 48.864-30.56 63.712-11.424q5.152 0 24 12.288t42.56 27.424 61.728 27.424 76.288 12.288 76.288-12.288 61.728-27.424 42.56-27.424 24-12.288q34.848 0 63.712 11.424t48.864 30.56 35.424 46.272 24.576 55.712 15.136 62.016 8 62.272 2.016 59.136zM725.7952 292.576q0 90.848-64.288 155.136t-155.136 64.288-155.136-64.288-64.288-155.136 64.288-155.136 155.136-64.288 155.136 64.288 64.288 155.136z" p-id="2815"></path></svg>