<svg t="1602488944087" class="icon" viewBox="0 0 1024 1024" version="1.1" xmlns="http://www.w3.org/2000/svg" p-id="2088" width="200" height="200"><path d="M450.857143 381.142857q-5.714286 10.285714-146.857143 260.571429-15.428571 26.285714-37.142857 26.285714H130.285714q-12 0-17.714285-9.714286t0-20.571428l144.571428-256q0.571429 0 0-0.571429L165.142857 221.714286q-6.857143-12.571429-0.571428-21.142857 5.142857-8.571429 18.285714-8.571429h136.571428q22.857143 0 37.714286 25.714286z m460.571428-366.857143q6.285714 9.142857 0 21.142857l-301.714285 533.714286v0.571429l192 351.428571q6.285714 11.428571 0.571428 21.142857-5.714286 8.571429-18.285714 8.571429h-136.571429q-24 0-37.714285-25.714286L416 569.714286q10.285714-18.285714 303.428571-538.285715 14.285714-25.714286 36.571429-25.714285h137.714286q12.571429 0 17.714285 8.571428z" p-id="2089"></path></svg>